<svg width="2077" height="191" viewBox="0 0 2077 191" fill="none" xmlns="http://www.w3.org/2000/svg">
<path d="M0.600001 158V18H27.4L87 116.8H72.8L131.4 18H158L158.4 158H128L127.8 64.6H133.4L86.6 143.2H72L24.2 64.6H31V158H0.600001ZM235.616 159.6C225.482 159.6 216.349 157.333 208.216 152.8C200.082 148.133 193.616 141.667 188.816 133.4C184.149 125.133 181.816 115.4 181.816 104.2C181.816 92.8667 184.149 83.0667 188.816 74.8C193.616 66.5333 200.082 60.1333 208.216 55.6C216.349 51.0667 225.482 48.8 235.616 48.8C244.682 48.8 252.616 50.8 259.416 54.8C266.216 58.8 271.482 64.8667 275.216 73C278.949 81.1333 280.816 91.5333 280.816 104.2C280.816 116.733 279.016 127.133 275.416 135.4C271.816 143.533 266.616 149.6 259.816 153.6C253.149 157.6 245.082 159.6 235.616 159.6ZM241.016 134C246.082 134 250.682 132.8 254.816 130.4C258.949 128 262.216 124.6 264.616 120.2C267.149 115.667 268.416 110.333 268.416 104.2C268.416 97.9333 267.149 92.6 264.616 88.2C262.216 83.8 258.949 80.4 254.816 78C250.682 75.6 246.082 74.4 241.016 74.4C235.816 74.4 231.149 75.6 227.016 78C222.882 80.4 219.549 83.8 217.016 88.2C214.616 92.6 213.416 97.9333 213.416 104.2C213.416 110.333 214.616 115.667 217.016 120.2C219.549 124.6 222.882 128 227.016 130.4C231.149 132.8 235.816 134 241.016 134ZM269.216 158V136L269.816 104L267.816 72.2V9.59999H299.016V158H269.216ZM432.733 160.4C421.533 160.4 410.799 158.933 400.533 156C390.266 152.933 381.999 149 375.733 144.2L386.733 119.8C392.733 124.067 399.799 127.6 407.933 130.4C416.199 133.067 424.533 134.4 432.933 134.4C439.333 134.4 444.466 133.8 448.333 132.6C452.333 131.267 455.266 129.467 457.133 127.2C458.999 124.933 459.933 122.333 459.933 119.4C459.933 115.667 458.466 112.733 455.533 110.6C452.599 108.333 448.733 106.533 443.933 105.2C439.133 103.733 433.799 102.4 427.933 101.2C422.199 99.8667 416.399 98.2667 410.533 96.4C404.799 94.5333 399.533 92.1333 394.733 89.2C389.933 86.2667 385.999 82.4 382.933 77.6C379.999 72.8 378.533 66.6667 378.533 59.2C378.533 51.2 380.666 43.9333 384.933 37.4C389.333 30.7333 395.866 25.4667 404.533 21.6C413.333 17.6 424.333 15.6 437.533 15.6C446.333 15.6 454.999 16.6667 463.533 18.8C472.066 20.8 479.599 23.8667 486.133 28L476.133 52.6C469.599 48.8667 463.066 46.1333 456.533 44.4C449.999 42.5333 443.599 41.6 437.333 41.6C431.066 41.6 425.933 42.3333 421.933 43.8C417.933 45.2667 415.066 47.2 413.333 49.6C411.599 51.8667 410.733 54.5333 410.733 57.6C410.733 61.2 412.199 64.1333 415.133 66.4C418.066 68.5333 421.933 70.2667 426.733 71.6C431.533 72.9333 436.799 74.2667 442.533 75.6C448.399 76.9333 454.199 78.4667 459.933 80.2C465.799 81.9333 471.133 84.2667 475.933 87.2C480.733 90.1333 484.599 94 487.533 98.8C490.599 103.6 492.133 109.667 492.133 117C492.133 124.867 489.933 132.067 485.533 138.6C481.133 145.133 474.533 150.4 465.733 154.4C457.066 158.4 446.066 160.4 432.733 160.4ZM578.072 158V137L576.072 132.4V94.8C576.072 88.1333 574.005 82.9333 569.872 79.2C565.872 75.4667 559.672 73.6 551.272 73.6C545.539 73.6 539.872 74.5333 534.272 76.4C528.805 78.1333 524.139 80.5333 520.272 83.6L509.072 61.8C514.939 57.6667 522.005 54.4667 530.272 52.2C538.539 49.9333 546.939 48.8 555.472 48.8C571.872 48.8 584.605 52.6667 593.672 60.4C602.739 68.1333 607.272 80.2 607.272 96.6V158H578.072ZM545.272 159.6C536.872 159.6 529.672 158.2 523.672 155.4C517.672 152.467 513.072 148.533 509.872 143.6C506.672 138.667 505.072 133.133 505.072 127C505.072 120.6 506.605 115 509.672 110.2C512.872 105.4 517.872 101.667 524.672 99C531.472 96.2 540.339 94.8 551.272 94.8H579.872V113H554.672C547.339 113 542.272 114.2 539.472 116.6C536.805 119 535.472 122 535.472 125.6C535.472 129.6 537.005 132.8 540.072 135.2C543.272 137.467 547.605 138.6 553.072 138.6C558.272 138.6 562.939 137.4 567.072 135C571.205 132.467 574.205 128.8 576.072 124L580.872 138.4C578.605 145.333 574.472 150.6 568.472 154.2C562.472 157.8 554.739 159.6 545.272 159.6ZM639.309 158V48C639.309 35.8667 642.909 26.2 650.109 19C657.309 11.6667 667.576 7.99999 680.909 7.99999C685.443 7.99999 689.776 8.46666 693.909 9.39999C698.176 10.3333 701.776 11.8 704.709 13.8L696.509 36.4C694.776 35.2 692.843 34.2667 690.709 33.6C688.576 32.9333 686.309 32.6 683.909 32.6C679.376 32.6 675.843 33.9333 673.309 36.6C670.909 39.1333 669.709 43 669.709 48.2V58.2L670.509 71.6V158H639.309ZM622.709 76.8V52.8H697.309V76.8H622.709ZM739.406 158L700.606 50.4H730.006L762.206 143H748.206L781.806 50.4H808.206L840.806 143H826.806L860.006 50.4H887.606L848.606 158H818.406L789.806 78.6H799.006L769.406 158H739.406ZM964.595 158V137L962.595 132.4V94.8C962.595 88.1333 960.529 82.9333 956.395 79.2C952.395 75.4667 946.195 73.6 937.795 73.6C932.062 73.6 926.395 74.5333 920.795 76.4C915.329 78.1333 910.662 80.5333 906.795 83.6L895.595 61.8C901.462 57.6667 908.529 54.4667 916.795 52.2C925.062 49.9333 933.462 48.8 941.995 48.8C958.395 48.8 971.129 52.6667 980.195 60.4C989.262 68.1333 993.795 80.2 993.795 96.6V158H964.595ZM931.795 159.6C923.395 159.6 916.195 158.2 910.195 155.4C904.195 152.467 899.595 148.533 896.395 143.6C893.195 138.667 891.595 133.133 891.595 127C891.595 120.6 893.129 115 896.195 110.2C899.395 105.4 904.395 101.667 911.195 99C917.995 96.2 926.862 94.8 937.795 94.8H966.395V113H941.195C933.862 113 928.795 114.2 925.995 116.6C923.329 119 921.995 122 921.995 125.6C921.995 129.6 923.529 132.8 926.595 135.2C929.795 137.467 934.129 138.6 939.595 138.6C944.795 138.6 949.462 137.4 953.595 135C957.729 132.467 960.729 128.8 962.595 124L967.395 138.4C965.129 145.333 960.995 150.6 954.995 154.2C948.995 157.8 941.262 159.6 931.795 159.6ZM1066.03 159.6C1053.37 159.6 1043.5 156.4 1036.43 150C1029.37 143.467 1025.83 133.8 1025.83 121V26.6H1057.03V120.6C1057.03 125.133 1058.23 128.667 1060.63 131.2C1063.03 133.6 1066.3 134.8 1070.43 134.8C1075.37 134.8 1079.57 133.467 1083.03 130.8L1091.43 152.8C1088.23 155.067 1084.37 156.8 1079.83 158C1075.43 159.067 1070.83 159.6 1066.03 159.6ZM1009.23 76.8V52.8H1083.83V76.8H1009.23ZM1235.59 160.4C1224.65 160.4 1214.45 158.6 1204.99 155C1195.65 151.4 1187.52 146.333 1180.59 139.8C1173.79 133.267 1168.45 125.6 1164.59 116.8C1160.85 108 1158.99 98.4 1158.99 88C1158.99 77.6 1160.85 68 1164.59 59.2C1168.45 50.4 1173.85 42.7333 1180.79 36.2C1187.72 29.6667 1195.85 24.6 1205.19 21C1214.52 17.4 1224.65 15.6 1235.59 15.6C1246.65 15.6 1256.79 17.4 1265.99 21C1275.32 24.6 1283.39 29.6667 1290.19 36.2C1297.12 42.6 1302.52 50.2 1306.39 59C1310.25 67.8 1312.19 77.4667 1312.19 88C1312.19 98.4 1310.25 108.067 1306.39 117C1302.52 125.8 1297.12 133.467 1290.19 140C1283.39 146.4 1275.32 151.4 1265.99 155C1256.79 158.6 1246.65 160.4 1235.59 160.4ZM1281.39 190.2C1275.92 190.2 1270.72 189.6 1265.79 188.4C1260.99 187.2 1256.19 185.267 1251.39 182.6C1246.72 179.933 1241.79 176.333 1236.59 171.8C1231.52 167.267 1225.99 161.667 1219.99 155L1253.99 146.4C1257.59 151.333 1260.92 155.267 1263.99 158.2C1267.05 161.133 1269.99 163.2 1272.79 164.4C1275.72 165.6 1278.79 166.2 1281.99 166.2C1290.52 166.2 1298.12 162.733 1304.79 155.8L1319.19 173C1309.72 184.467 1297.12 190.2 1281.39 190.2ZM1235.59 132.8C1241.85 132.8 1247.59 131.733 1252.79 129.6C1258.12 127.467 1262.79 124.4 1266.79 120.4C1270.79 116.4 1273.85 111.667 1275.99 106.2C1278.25 100.6 1279.39 94.5333 1279.39 88C1279.39 81.3333 1278.25 75.2667 1275.99 69.8C1273.85 64.3333 1270.79 59.6 1266.79 55.6C1262.79 51.6 1258.12 48.5333 1252.79 46.4C1247.59 44.2667 1241.85 43.2 1235.59 43.2C1229.32 43.2 1223.52 44.2667 1218.19 46.4C1212.85 48.5333 1208.19 51.6 1204.19 55.6C1200.32 59.6 1197.25 64.3333 1194.99 69.8C1192.85 75.2667 1191.79 81.3333 1191.79 88C1191.79 94.5333 1192.85 100.6 1194.99 106.2C1197.25 111.667 1200.32 116.4 1204.19 120.4C1208.19 124.4 1212.85 127.467 1218.19 129.6C1223.52 131.733 1229.32 132.8 1235.59 132.8ZM1379.74 159.6C1370.8 159.6 1362.8 157.867 1355.74 154.4C1348.8 150.933 1343.4 145.667 1339.54 138.6C1335.67 131.4 1333.74 122.267 1333.74 111.2V50.4H1364.94V106.6C1364.94 115.533 1366.8 122.133 1370.54 126.4C1374.4 130.533 1379.8 132.6 1386.74 132.6C1391.54 132.6 1395.8 131.6 1399.54 129.6C1403.27 127.467 1406.2 124.267 1408.34 120C1410.47 115.6 1411.54 110.133 1411.54 103.6V50.4H1442.74V158H1413.14V128.4L1418.54 137C1414.94 144.467 1409.6 150.133 1402.54 154C1395.6 157.733 1388 159.6 1379.74 159.6ZM1471.64 158V50.4H1501.44V80.8L1497.24 72C1500.44 64.4 1505.58 58.6667 1512.64 54.8C1519.71 50.8 1528.31 48.8 1538.44 48.8V77.6C1537.11 77.4667 1535.91 77.4 1534.84 77.4C1533.78 77.2667 1532.64 77.2 1531.44 77.2C1522.91 77.2 1515.98 79.6667 1510.64 84.6C1505.44 89.4 1502.84 96.9333 1502.84 107.2V158H1471.64ZM1557.19 158V50.4H1588.39V158H1557.19ZM1572.79 35.4C1567.06 35.4 1562.39 33.7333 1558.79 30.4C1555.19 27.0667 1553.39 22.9333 1553.39 18C1553.39 13.0667 1555.19 8.93333 1558.79 5.6C1562.39 2.26666 1567.06 0.599988 1572.79 0.599988C1578.52 0.599988 1583.19 2.19999 1586.79 5.4C1590.39 8.46666 1592.19 12.4667 1592.19 17.4C1592.19 22.6 1590.39 26.9333 1586.79 30.4C1583.32 33.7333 1578.66 35.4 1572.79 35.4ZM1680.95 159.6C1671.48 159.6 1663.35 157.6 1656.55 153.6C1649.75 149.6 1644.55 143.533 1640.95 135.4C1637.35 127.133 1635.55 116.733 1635.55 104.2C1635.55 91.5333 1637.41 81.1333 1641.15 73C1645.01 64.8667 1650.35 58.8 1657.15 54.8C1663.95 50.8 1671.88 48.8 1680.95 48.8C1691.08 48.8 1700.15 51.0667 1708.15 55.6C1716.28 60.1333 1722.68 66.5333 1727.35 74.8C1732.15 83.0667 1734.55 92.8667 1734.55 104.2C1734.55 115.4 1732.15 125.133 1727.35 133.4C1722.68 141.667 1716.28 148.133 1708.15 152.8C1700.15 157.333 1691.08 159.6 1680.95 159.6ZM1617.35 158V9.59999H1648.55V72.2L1646.55 104L1647.15 136V158H1617.35ZM1675.55 134C1680.75 134 1685.35 132.8 1689.35 130.4C1693.48 128 1696.75 124.6 1699.15 120.2C1701.68 115.667 1702.95 110.333 1702.95 104.2C1702.95 97.9333 1701.68 92.6 1699.15 88.2C1696.75 83.8 1693.48 80.4 1689.35 78C1685.35 75.6 1680.75 74.4 1675.55 74.4C1670.35 74.4 1665.68 75.6 1661.55 78C1657.41 80.4 1654.15 83.8 1651.75 88.2C1649.35 92.6 1648.15 97.9333 1648.15 104.2C1648.15 110.333 1649.35 115.667 1651.75 120.2C1654.15 124.6 1657.41 128 1661.55 130.4C1665.68 132.8 1670.35 134 1675.55 134ZM1814.27 158V18H1846.67V158H1814.27ZM1881.5 158V48C1881.5 35.8667 1885.1 26.2 1892.3 19C1899.5 11.6667 1909.76 7.99999 1923.1 7.99999C1927.63 7.99999 1931.96 8.46666 1936.1 9.39999C1940.36 10.3333 1943.96 11.8 1946.9 13.8L1938.7 36.4C1936.96 35.2 1935.03 34.2667 1932.9 33.6C1930.76 32.9333 1928.5 32.6 1926.1 32.6C1921.56 32.6 1918.03 33.9333 1915.5 36.6C1913.1 39.1333 1911.9 43 1911.9 48.2V58.2L1912.7 71.6V158H1881.5ZM1864.9 76.8V52.8H1939.5V76.8H1864.9ZM1999.04 159.6C1986.37 159.6 1976.51 156.4 1969.44 150C1962.37 143.467 1958.84 133.8 1958.84 121V26.6H1990.04V120.6C1990.04 125.133 1991.24 128.667 1993.64 131.2C1996.04 133.6 1999.31 134.8 2003.44 134.8C2008.37 134.8 2012.57 133.467 2016.04 130.8L2024.44 152.8C2021.24 155.067 2017.37 156.8 2012.84 158C2008.44 159.067 2003.84 159.6 1999.04 159.6ZM1942.24 76.8V52.8H2016.84V76.8H1942.24ZM2041.95 158V50.4H2073.15V158H2041.95ZM2057.55 35.4C2051.82 35.4 2047.15 33.7333 2043.55 30.4C2039.95 27.0667 2038.15 22.9333 2038.15 18C2038.15 13.0667 2039.95 8.93333 2043.55 5.6C2047.15 2.26666 2051.82 0.599988 2057.55 0.599988C2063.29 0.599988 2067.95 2.19999 2071.55 5.4C2075.15 8.46666 2076.95 12.4667 2076.95 17.4C2076.95 22.6 2075.15 26.9333 2071.55 30.4C2068.09 33.7333 2063.42 35.4 2057.55 35.4Z" fill="#4E342E"/>
</svg>
